<svg xmlns="http://www.w3.org/2000/svg" viewBox="0 0 64 64">
  <defs>
    <linearGradient id="g" x1="0" y1="0" x2="1" y2="1">
      <stop offset="0%" stop-color="#7C3AED"/>
      <stop offset="30%" stop-color="#DB2777"/>
      <stop offset="100%" stop-color="#FB923C"/>
    </linearGradient>
  </defs>
  <g fill="none" stroke="url(#g)" stroke-linecap="round" stroke-linejoin="round">
    <path d="M 22 14 C 25 20 28 22 32 22 C 36 22 39 20 42 14" stroke-width="1.5" opacity="0.5"/>
    <path d="M 14 42 C 20 39 22 36 22 32 C 22 28 20 25 14 22" stroke-width="1.5" opacity="0.5"/>
    <path d="M 50 22 C 44 25 42 28 42 32 C 42 36 44 39 50 42" stroke-width="1.5" opacity="0.5"/>
    <path d="M 22 50 C 25 44 28 42 32 42 C 36 42 39 44 42 50" stroke-width="1.5" opacity="0.5"/>
    <path d="M 28 14 C 30 18 30 22 32 22 C 34 22 34 18 36 14" stroke-width="1.5" opacity="0.4"/>
    <path d="M 14 36 C 18 34 22 34 22 32 C 22 30 18 30 14 28" stroke-width="1.5" opacity="0.4"/>
    <path d="M 50 28 C 46 30 42 30 42 32 C 42 34 46 34 50 36" stroke-width="1.5" opacity="0.4"/>
    <path d="M 36 50 C 34 46 34 42 32 42 C 30 42 30 46 28 50" stroke-width="1.5" opacity="0.4"/>
    <path d="M 13.5 50.5 C 16 34 30 30 32 32 C 34 34 48 16 50.5 13.5" stroke-width="4.5"/>
    <path d="M 20 20 C 24 14 40 14 44 20" stroke-width="2.5"/>
    <path d="M 44 20 C 50 24 50 40 44 44" stroke-width="2.5"/>
    <path d="M 44 44 C 40 50 24 50 20 44" stroke-width="2.5"/>
    <path d="M 20 44 C 14 40 14 24 20 20" stroke-width="2.5"/>
    <path d="M 13.5 13.5 C 16 30 30 16 32 32 C 34 48 48 34 50.5 50.5" stroke-width="4.5"/>
    <path d="M 20 13.5 C 26 6 38 6 44 13.5" stroke-width="4.5"/>
    <path d="M 50.5 20 C 58 26 58 38 50.5 44" stroke-width="4.5"/>
    <path d="M 44 50.5 C 38 58 26 58 20 50.5" stroke-width="4.5"/>
    <path d="M 13.5 44 C 6 38 6 26 13.5 20" stroke-width="4.5"/>
    <path d="M 57 57 C 59 59 61 61 63 63" stroke-width="4.5"/>
  </g>
  <g fill="url(#g)">
    <rect x="7" y="7" width="13" height="13" rx="3.5"/>
    <rect x="44" y="7" width="13" height="13" rx="3.5"/>
    <rect x="44" y="44" width="13" height="13" rx="3.5"/>
    <rect x="7" y="44" width="13" height="13" rx="3.5"/>
    <rect x="24" y="7" width="4" height="3" rx="0.75"/>
    <rect x="37" y="8" width="3" height="4" rx="0.75"/>
    <rect x="54" y="24" width="3" height="4" rx="0.75"/>
    <rect x="54" y="37" width="4" height="3" rx="0.75"/>
    <rect x="37" y="54" width="4" height="3" rx="0.75"/>
    <rect x="24" y="54" width="3" height="4" rx="0.75"/>
    <rect x="7" y="37" width="3" height="4" rx="0.75"/>
    <rect x="7" y="24" width="4" height="3" rx="0.75"/>
    <rect x="10" y="24" width="2" height="2" rx="0.5" opacity="0.5"/>
    <rect x="52" y="10" width="2" height="2" rx="0.5" opacity="0.5"/>
    <rect x="10" y="38" width="2" height="2" rx="0.5" opacity="0.5"/>
    <rect x="52" y="52" width="2" height="2" rx="0.5" opacity="0.5"/>
  </g>
  <path d="M 28 28 C 30 30 32 32 34 34" fill="none" stroke="url(#g)" stroke-width="5.5" stroke-linecap="round"/>
  <rect x="28.5" y="28.5" width="2" height="2" rx="0.5" fill="url(#g)" opacity="0.6"/>
  <rect x="33.5" y="28.5" width="2" height="2" rx="0.5" fill="url(#g)" opacity="0.6"/>
  <rect x="28.5" y="33.5" width="2" height="2" rx="0.5" fill="url(#g)" opacity="0.6"/>
  <rect x="33.5" y="33.5" width="2" height="2" rx="0.5" fill="url(#g)" opacity="0.6"/>
</svg>
