<svg xmlns="http://www.w3.org/2000/svg" viewBox="0 0 64 64">
  <g fill="none" stroke="#000" stroke-linecap="round" stroke-linejoin="round">
    <path d="M 13.5 50.5 C 16 34 30 30 32 32 C 34 34 48 16 50.5 13.5" stroke-width="4.5"/>
    <path d="M 20 20 C 24 14 40 14 44 20" stroke-width="2.5"/>
    <path d="M 44 20 C 50 24 50 40 44 44" stroke-width="2.5"/>
    <path d="M 44 44 C 40 50 24 50 20 44" stroke-width="2.5"/>
    <path d="M 20 44 C 14 40 14 24 20 20" stroke-width="2.5"/>
    <path d="M 13.5 13.5 C 16 30 30 16 32 32 C 34 48 48 34 50.5 50.5" stroke-width="4.5"/>
    <path d="M 20 13.5 C 26 6 38 6 44 13.5" stroke-width="4.5"/>
    <path d="M 50.5 20 C 58 26 58 38 50.5 44" stroke-width="4.5"/>
    <path d="M 44 50.5 C 38 58 26 58 20 50.5" stroke-width="4.5"/>
    <path d="M 13.5 44 C 6 38 6 26 13.5 20" stroke-width="4.5"/>
    <path d="M 57 57 C 59 59 61 61 63 63" stroke-width="4.5"/>
  </g>
  <g fill="#000">
    <rect x="7" y="7" width="13" height="13" rx="3.5"/>
    <rect x="44" y="7" width="13" height="13" rx="3.5"/>
    <rect x="44" y="44" width="13" height="13" rx="3.5"/>
    <rect x="7" y="44" width="13" height="13" rx="3.5"/>
  </g>
  <path d="M 28 28 C 30 30 32 32 34 34" fill="none" stroke="#000" stroke-width="5.5" stroke-linecap="round"/>
</svg>
